<svg class="animated" id="freepik_stories-personal-trainer" xmlns="http://www.w3.org/2000/svg" viewBox="0 0 500 500" version="1.1" xmlns:xlink="http://www.w3.org/1999/xlink" xmlns:svgjs="http://svgjs.com/svgjs"><style>svg#freepik_stories-personal-trainer:not(.animated) .animable {opacity: 0;}svg#freepik_stories-personal-trainer.animated #freepik--background-simple--inject-28 {animation: 1s 1 forwards cubic-bezier(.36,-0.01,.5,1.38) fadeIn;animation-delay: 0s;}svg#freepik_stories-personal-trainer.animated #freepik--character-2--inject-28 {animation: 1.5s Infinite  linear floating;animation-delay: 0s;}            @keyframes fadeIn {                0% {                    opacity: 0;                }                100% {                    opacity: 1;                }            }                    @keyframes floating {                0% {                    opacity: 1;                    transform: translateY(0px);                }                50% {                    transform: translateY(-10px);                }                100% {                    opacity: 1;                    transform: translateY(0px);                }            }        </style><g id="freepik--background-simple--inject-28" class="animable" style="transform-origin: 249.265px 218.182px;"><path d="M84.58,341.84C67.76,322.53,56.45,299,48.27,274.7c-11.5-34.18-17.12-70.92-11.36-106.51s23.68-70,52.66-91.42S159,48.43,191.85,63.24c14.35,6.46,26.71,16.55,39,26.33,30.79,24.42,63.82,48.22,102.22,56.52,17,3.68,34.66,4.21,51.25,9.4,24.13,7.53,44.62,24.73,58.55,45.82,21,31.75,27.28,73.38,14.26,109.14s-45.91,64.16-83.59,69.46c-15.47,2.18-31.19.66-46.76-.66-51.15-4.35-192.94-1.44-208.44-8C106.11,366.12,93.2,351.74,84.58,341.84Z" style="fill: #92E3A9; transform-origin: 249.265px 218.182px;" id="el3adgr9mc4zb" class="animable"></path><g id="elqnrfkhujnm"><path d="M84.58,341.84C67.76,322.53,56.45,299,48.27,274.7c-11.5-34.18-17.12-70.92-11.36-106.51s23.68-70,52.66-91.42S159,48.43,191.85,63.24c14.35,6.46,26.71,16.55,39,26.33,30.79,24.42,63.82,48.22,102.22,56.52,17,3.68,34.66,4.21,51.25,9.4,24.13,7.53,44.62,24.73,58.55,45.82,21,31.75,27.28,73.38,14.26,109.14s-45.91,64.16-83.59,69.46c-15.47,2.18-31.19.66-46.76-.66-51.15-4.35-192.94-1.44-208.44-8C106.11,366.12,93.2,351.74,84.58,341.84Z" style="fill: rgb(255, 255, 255); opacity: 0.7; transform-origin: 249.265px 218.182px;" class="animable" id="elswhuxi4a71a"></path></g></g><g id="freepik--Floor--inject-28" class="animable" style="transform-origin: 250px 398.08px;"><line x1="70.1" y1="398.08" x2="429.9" y2="398.08" style="fill: none; stroke: rgb(38, 50, 56); stroke-miterlimit: 10; transform-origin: 250px 398.08px;" id="el1dlbm8xqh1z" class="animable"></line></g><g id="freepik--Window--inject-28" class="animable" style="transform-origin: 375.445px 175.63px;"><path d="M428.19,118.58v125H322.7v-125a133.07,133.07,0,0,1,105.49,0Z" style="fill: rgb(38, 50, 56); transform-origin: 375.445px 175.63px;" id="el8hpszbv2c09" class="animable"></path><g id="el43wwfwglx3z"><path d="M428.19,118.58v125H322.7v-125a133.07,133.07,0,0,1,105.49,0Z" style="fill: rgb(255, 255, 255); opacity: 0.1; transform-origin: 375.445px 175.63px;" class="animable" id="elkl4jis5jpea"></path></g><path d="M424.27,122.81V238.53H326.61V122.81a123.2,123.2,0,0,1,97.66,0Z" style="fill: #92E3A9; transform-origin: 375.44px 175.625px;" id="elek49697jbo9" class="animable"></path><g id="el6cyyd0th13l"><path d="M424.27,122.81V238.53H326.61V122.81a123.2,123.2,0,0,1,97.66,0Z" style="fill: rgb(255, 255, 255); opacity: 0.4; transform-origin: 375.44px 175.625px;" class="animable" id="elcgoqnx9ig66"></path></g><line x1="347.86" y1="115.85" x2="347.86" y2="240.21" style="fill: none; stroke: rgb(38, 50, 56); stroke-miterlimit: 10; transform-origin: 347.86px 178.03px;" id="elhs9t58ttj4" class="animable"></line><g id="el5k0fgct0nyk"><g style="opacity: 0.6; transform-origin: 375.44px 181.725px;" class="animable" id="elsribu63flx"><polygon points="424.27 182.77 424.27 203.5 388.31 238.53 367.42 238.53 424.27 182.77" style="fill: rgb(255, 255, 255); transform-origin: 395.845px 210.65px;" id="el9klb4fm5obg" class="animable"></polygon><polygon points="424.27 124.92 424.27 159.22 342.86 238.53 326.61 238.53 326.61 225.57 326.93 220.39 424.27 124.92" style="fill: rgb(255, 255, 255); transform-origin: 375.44px 181.725px;" id="elygluqxplbt" class="animable"></polygon></g></g><line x1="373.54" y1="112.74" x2="373.54" y2="240.21" style="fill: none; stroke: rgb(38, 50, 56); stroke-miterlimit: 10; transform-origin: 373.54px 176.475px;" id="elk4s7a9gfic" class="animable"></line><line x1="399.22" y1="112.74" x2="399.22" y2="240.21" style="fill: none; stroke: rgb(38, 50, 56); stroke-miterlimit: 10; transform-origin: 399.22px 176.475px;" id="elr3xxpj13tte" class="animable"></line><line x1="325.22" y1="137.96" x2="424.27" y2="137.96" style="fill: none; stroke: rgb(38, 50, 56); stroke-miterlimit: 10; transform-origin: 374.745px 137.96px;" id="elbir19yn6f7i" class="animable"></line><line x1="325.22" y1="161.48" x2="424.27" y2="161.48" style="fill: none; stroke: rgb(38, 50, 56); stroke-miterlimit: 10; transform-origin: 374.745px 161.48px;" id="ely24scmnzlqc" class="animable"></line><line x1="325.22" y1="187.15" x2="427.02" y2="187.15" style="fill: none; stroke: rgb(38, 50, 56); stroke-miterlimit: 10; transform-origin: 376.12px 187.15px;" id="eleumrg10314j" class="animable"></line><line x1="325.22" y1="212.83" x2="424.27" y2="212.83" style="fill: none; stroke: rgb(38, 50, 56); stroke-miterlimit: 10; transform-origin: 374.745px 212.83px;" id="el7nm9m5d4do8" class="animable"></line></g><g id="freepik--Plant--inject-28" class="animable" style="transform-origin: 98.12px 192.37px;"><g id="freepik--Plants--inject-92--inject-28" class="animable" style="transform-origin: 98.12px 190.565px;"><path d="M79.71,193.33s-1.57-5.1-6.13-6.92c-3.19-1.27-6.84-.94-10.13-.37-6.14,1.07-11.48,3.5-17.3,5.6,0,0,2.48-.92,12.66,4a27.48,27.48,0,0,0,12.33,3.15C74.6,198.75,79.87,197.77,79.71,193.33Z" style="fill: #92E3A9; transform-origin: 62.9318px 192.162px;" id="elqrq22u5ih7" class="animable"></path><path d="M80.25,178.36s0-5.32-3.87-8.39c-2.67-2.14-6.28-2.88-9.59-3.28-6.19-.75-12,0-18.18.35,0,0,2.65-.16,11,7.54a27.48,27.48,0,0,0,10.89,6.58C73.8,182.08,79.14,182.67,80.25,178.36Z" style="fill: #92E3A9; transform-origin: 64.43px 174.092px;" id="elouqbapyqsfo" class="animable"></path><path d="M90.79,198.15s-4.15-3.33-4.16-8.26c0-3.42,1.64-6.69,3.39-9.54,3.26-5.31,7.49-9.38,11.57-14,0,0-1.76,2-.91,13.27a27.47,27.47,0,0,1-1.61,12.63C97.72,195.4,94.87,199.94,90.79,198.15Z" style="fill: #92E3A9; transform-origin: 94.11px 182.452px;" id="el47ptdtuhisb" class="animable"></path><path d="M105.52,206.34s-.59-5.29,2.88-8.8c2.4-2.42,5.89-3.57,9.14-4.35,6-1.46,11.93-1.35,18.09-1.75,0,0-2.64.15-10,8.74a27.36,27.36,0,0,1-10.07,7.8C112.36,209.28,107.13,210.48,105.52,206.34Z" style="fill: #92E3A9; transform-origin: 120.556px 200.322px;" id="eluf7je1muaf" class="animable"></path><path d="M104.55,187.46s-5.28-.73-7.82-4.94c-1.76-2.93-2-6.6-2-9.94.07-6.23,1.61-11.9,2.73-18,0,0-.5,2.59,6,11.84a27.5,27.5,0,0,1,5.1,11.67C109.08,181.56,109,186.9,104.55,187.46Z" style="fill: #92E3A9; transform-origin: 101.754px 171.02px;" id="el2x84z49r357" class="animable"></path><path d="M119.74,178s3.8,3.75,8.69,3.19c3.4-.39,6.46-2.43,9.09-4.49,4.89-3.85,8.44-8.54,12.57-13.13,0,0-1.75,2-13.07,2.45a27.42,27.42,0,0,0-12.36,3.09C121.67,170.78,117.49,174.15,119.74,178Z" style="fill: #92E3A9; transform-origin: 134.595px 172.409px;" id="el7pqldgtafoy" class="animable"></path><path d="M115.35,174.28s5.3.53,8.75-3c2.42-2.43,3.53-5.93,4.28-9.19,1.39-6.07,1.23-11.94,1.56-18.11,0,0-.12,2.64-8.65,10.1a27.5,27.5,0,0,0-7.69,10.14C112.33,167.46,111.19,172.71,115.35,174.28Z" style="fill: #92E3A9; transform-origin: 121.186px 159.144px;" id="eljyv1x3eslis" class="animable"></path><polyline points="96.42 225.89 87.27 203.36 76.71 177.31" style="fill: none; stroke: rgb(38, 50, 56); stroke-linecap: round; stroke-linejoin: round; transform-origin: 86.565px 201.6px;" id="eli5zfsjn1fnq" class="animable"></polyline><polyline points="98.53 222.01 107.68 190.69 117.54 171.33" style="fill: none; stroke: rgb(38, 50, 56); stroke-linecap: round; stroke-linejoin: round; transform-origin: 108.035px 196.67px;" id="elj1blv43srh8" class="animable"></polyline><line x1="102.05" y1="209.69" x2="111.2" y2="204.42" style="fill: none; stroke: rgb(38, 50, 56); stroke-linecap: round; stroke-linejoin: round; transform-origin: 106.625px 207.055px;" id="elvi1uusnlrve" class="animable"></line><line x1="107.68" y1="190.69" x2="103.1" y2="180.49" style="fill: none; stroke: rgb(38, 50, 56); stroke-linecap: round; stroke-linejoin: round; transform-origin: 105.39px 185.59px;" id="el8jc6x119mop" class="animable"></line><line x1="113.4" y1="180.54" x2="124.57" y2="175.55" style="fill: none; stroke: rgb(38, 50, 56); stroke-linecap: round; stroke-linejoin: round; transform-origin: 118.985px 178.045px;" id="el467cb3h23p6" class="animable"></line><line x1="89.02" y1="207.58" x2="92.89" y2="192.1" style="fill: none; stroke: rgb(38, 50, 56); stroke-linecap: round; stroke-linejoin: round; transform-origin: 90.955px 199.84px;" id="el44muidp5rfa" class="animable"></line><line x1="83.89" y1="195.81" x2="74.95" y2="191.04" style="fill: none; stroke: rgb(38, 50, 56); stroke-linecap: round; stroke-linejoin: round; transform-origin: 79.42px 193.425px;" id="elyzbxlegtzb" class="animable"></line><polygon points="105.55 237.15 89.04 237.15 85.51 218.49 109.09 218.49 105.55 237.15" style="fill: rgb(38, 50, 56); transform-origin: 97.3px 227.82px;" id="elh94xghcwshn" class="animable"></polygon></g><rect x="64.28" y="237.15" width="64.27" height="3.61" style="fill: none; stroke: rgb(38, 50, 56); stroke-miterlimit: 10; transform-origin: 96.415px 238.955px;" id="el168t9atvq13" class="animable"></rect></g><g id="freepik--Shadow--inject-28" class="animable" style="transform-origin: 248.56px 419.61px;"><ellipse cx="248.56" cy="419.61" rx="180.33" ry="13.39" style="fill: #92E3A9; transform-origin: 248.56px 419.61px;" id="elnx7m86407y9" class="animable"></ellipse><g id="eld0rpm2ouo1k"><ellipse cx="248.56" cy="419.61" rx="180.33" ry="13.39" style="fill: rgb(255, 255, 255); opacity: 0.5; transform-origin: 248.56px 419.61px;" class="animable" id="el76mi64ryqgo"></ellipse></g></g><g id="freepik--Graphics--inject-28" class="animable" style="transform-origin: 235.465px 204.135px;"><rect x="236.05" y="184.04" width="24.81" height="12.47" style="fill: none; stroke: rgb(38, 50, 56); stroke-miterlimit: 10; transform-origin: 248.455px 190.275px;" id="el506ycyhsoth" class="animable"></rect><rect x="260.91" y="261.98" width="24.81" height="12.47" style="fill: none; stroke: rgb(38, 50, 56); stroke-miterlimit: 10; transform-origin: 273.315px 268.215px;" id="el4jqj0hb3ha" class="animable"></rect><rect x="264.52" y="184.04" width="24.81" height="12.47" style="fill: none; stroke: rgb(38, 50, 56); stroke-miterlimit: 10; transform-origin: 276.925px 190.275px;" id="elazcacbst4op" class="animable"></rect><rect x="250.79" y="199.17" width="24.81" height="12.47" style="fill: none; stroke: rgb(38, 50, 56); stroke-miterlimit: 10; transform-origin: 263.195px 205.405px;" id="elyvlzh92up4h" class="animable"></rect><rect x="181.6" y="133.82" width="24.81" height="12.47" style="fill: none; stroke: rgb(38, 50, 56); stroke-miterlimit: 10; transform-origin: 194.005px 140.055px;" id="elambogajp71" class="animable"></rect><rect x="210.08" y="133.82" width="24.81" height="12.47" style="fill: none; stroke: rgb(38, 50, 56); stroke-miterlimit: 10; transform-origin: 222.485px 140.055px;" id="elb82ruj0v7g4" class="animable"></rect><rect x="196.35" y="148.95" width="24.81" height="12.47" style="fill: none; stroke: rgb(38, 50, 56); stroke-miterlimit: 10; transform-origin: 208.755px 155.185px;" id="elo1mq1y7t5vr" class="animable"></rect></g><g id="freepik--character-2--inject-28" class="animable" style="transform-origin: 313.42px 350.108px;"><path d="M277.5,371.2c-.91,0-5.3-11.05-5.3-11.05s-5.91,16.47-10.52,21.81-14.3,13.56-17,17.09-11.22,16.27-11.22,16.27l-17.8-11.54s4.1,1.2,13.41-16,20-40.7,23.69-44.18c0,0,7.39-8.15,14.1-6.4,0,0,3.5-4.66,12.5-1.44s18.11,15.73,18.11,15.73S301.37,370.9,277.5,371.2Z" style="fill: rgb(255, 255, 255); transform-origin: 256.683px 374.973px;" id="elgywgamed07t" class="animable"></path><path d="M350.82,353.25s.35-5.82,3.8-7.5a36.9,36.9,0,0,0-7.12-7.31c-4.39-3.08-11.92-12.27-15.31-17.13,0,0,2-2.86,1.71-4.74a60.74,60.74,0,0,1-1.25-7.35c-.26-3.73-1.95-6.32-3.31-5.74s-7.47,5.34-8.94,7.47c0,0-3.24,2.6-1.83,7.59s3.4,11.72,4.34,14.41,4.55,14.4,9.12,20.27,15.31,18.15,20.32,20.16c0,0,17-9.19,23.15-15.1,0,0-1.05-7.44-10-10.24l-12.75,9.07Z" style="fill: rgb(255, 255, 255); transform-origin: 346.857px 338.389px;" id="elbdfmzf98fi9" class="animable"></path><path d="M218.69,401.93s-2.47,8.17,8,3l12.82-26.14,12.81-23.69s10.29-14.56,14.51-17.91c0,0-9.77-.43-16.36,9.5l-15.28,29.84s-12.15,23.89-16.69,26" style="fill: #92E3A9; transform-origin: 242.633px 371.916px;" id="elsp9eix80al" class="animable"></path><g id="elshkcyrpbn7"><path d="M218.69,401.93s-2.47,8.17,8,3l12.82-26.14,12.81-23.69s10.29-14.56,14.51-17.91c0,0-9.77-.43-16.36,9.5l-15.28,29.84s-12.15,23.89-16.69,26" style="fill: rgb(255, 255, 255); opacity: 0.6; transform-origin: 242.633px 371.916px;" class="animable" id="ela1czr7txgsl"></path></g><path d="M393.49,329.12c-.25-.8-3.47-5-2.93-9.63s4-16.25,4-16.25L371.28,284.6s-4.75,1-5.25,10.69a62.55,62.55,0,0,0-5.54,5.31,3.44,3.44,0,0,0,2.24,2.6s.8,10.66,1.93,12c0,0,8.75,1.07,12.34.63,0,0,2.84,2.86.51,10.32l-3,3.1s6.76,6.69,10.49,4.74S393.49,329.12,393.49,329.12Z" style="fill: rgb(255, 255, 255); transform-origin: 377.525px 309.473px;" id="elv5a46hfc2pq" class="animable"></path><path d="M369.66,285.48S371,305,385.21,312.8c0,0,3.23,13.44-2.92,18.74,0,0,1.58,4.49,5.64,3s5.08-6.66,5.08-6.66-4.73-9.12-.63-16.77,1.26-18,1.26-18l-12.15-6.56S375.34,279.22,369.66,285.48Z" style="fill: #92E3A9; transform-origin: 382.129px 308.897px;" id="elk1d4k4nnoad" class="animable"></path><g id="elb2ehdndwhou"><path d="M369.66,285.48S371,305,385.21,312.8c0,0,3.23,13.44-2.92,18.74,0,0,1.58,4.49,5.64,3s5.08-6.66,5.08-6.66-4.73-9.12-.63-16.77,1.26-18,1.26-18l-12.15-6.56S375.34,279.22,369.66,285.48Z" style="fill: rgb(255, 255, 255); opacity: 0.6; transform-origin: 382.129px 308.897px;" class="animable" id="elq8fjnx8sfb"></path></g><path d="M320.23,311.21s8.22-4.17,9.63-4.16c2.12.91,2.3,3.56,1.68,6.23-.86,3.47.62,5.12-.35,6.93a30.2,30.2,0,0,1-3,4.18l4.9,10.26s3.73,7,9.19,10.73a39.24,39.24,0,0,1,9.3,9.77,8.23,8.23,0,0,1,3.07-9.4,65.94,65.94,0,0,0-10.27-9.42c-5.6-4-12.16-15-12.16-15a8.23,8.23,0,0,0,.95-7.65c-1.23-3.76.44-8.77-2.72-9.89S321.87,309.45,320.23,311.21Z" style="fill: #92E3A9; transform-origin: 337.44px 329.408px;" id="elehn1tsg93k6" class="animable"></path><g id="ellme0oaeyw2l"><path d="M320.23,311.21s8.22-4.17,9.63-4.16c2.12.91,2.3,3.56,1.68,6.23-.86,3.47.62,5.12-.35,6.93a30.2,30.2,0,0,1-3,4.18l4.9,10.26s3.73,7,9.19,10.73a39.24,39.24,0,0,1,9.3,9.77,8.23,8.23,0,0,1,3.07-9.4,65.94,65.94,0,0,0-10.27-9.42c-5.6-4-12.16-15-12.16-15a8.23,8.23,0,0,0,.95-7.65c-1.23-3.76.44-8.77-2.72-9.89S321.87,309.45,320.23,311.21Z" style="fill: rgb(255, 255, 255); opacity: 0.6; transform-origin: 337.44px 329.408px;" class="animable" id="elq5v30622ukl"></path></g><path d="M333.23,381s10.85-6.88,13.87-11.29a32.13,32.13,0,0,0,5.25,3.65s15.1-7.73,23.15-15.1c0,0-3.88-9.42-10-10.24l-12.75,9.07L351,354.19s.21-5.05,2.73-7.64,9.2-11.52,9.2-11.52,6.62-10.51,11-7.68c0,0,4.71,3.5,9.12,4.36a15.87,15.87,0,0,0,8.88-5.28s3.6,5.1,6.23,15.45S395.1,365.76,391,371,380.74,381.48,374,388.05s-16.06,17.58-16.06,17.58S338.53,398.1,333.23,381Z" style="fill: #92E3A9; transform-origin: 366.03px 366.03px;" id="el5vcva2d7zu" class="animable"></path><g id="elegnctbz3l7l"><path d="M382.6,350.23l-3.87,8.18,6.58-3.56s-13.79,20.7-36.52,24.17c0,0,2.79,3.46,11.59,4.79A17.75,17.75,0,0,1,345,383a49.39,49.39,0,0,0,2.71,16.83s-10.1-10.18-12.94-19.58c0,0,9.53-6.2,12.32-10.54a62.19,62.19,0,0,0,5.25,3.65S376.2,361.76,382.6,350.23Z" style="opacity: 0.2; transform-origin: 360.04px 375.03px;" class="animable" id="ela0dz8ullozw"></path></g><g id="elaq9r84ls84"><path d="M356.59,344.32s14.59-10.51,18.46-15.7a4.08,4.08,0,0,0-6.11-.76C365.22,330.63,357.24,343,356.59,344.32Z" style="opacity: 0.2; transform-origin: 365.82px 335.569px;" class="animable" id="elqppr0m92zfc"></path></g><path d="M369.36,291.42s2.45-1.59,3.06,1.44" style="fill: none; stroke: rgb(38, 50, 56); stroke-linecap: round; stroke-linejoin: round; transform-origin: 370.89px 291.932px;" id="el38tbsrzpqhb" class="animable"></path><path d="M365.47,306.08s3.84,1.92,6.48-1" style="fill: none; stroke: rgb(38, 50, 56); stroke-linecap: round; stroke-linejoin: round; transform-origin: 368.71px 305.89px;" id="elkxcqk6ul6d" class="animable"></path><path d="M370.25,296.68c-.19.9-.71,1.56-1.15,1.46s-.64-.9-.45-1.8.7-1.56,1.14-1.46S370.44,295.78,370.25,296.68Z" style="fill: rgb(38, 50, 56); transform-origin: 369.449px 296.51px;" id="el9k04znhcg5h" class="animable"></path><path d="M394.07,312.38h0c-3.08.91-6.57,1.72-8.55-3.37,0,0,6.46-4.13,4.47-8.16s-6.36,1.72-6.36,1.72-10-7.9-13-16.89c0,0-1.74,0-3.8,4.44,0,0-4.67-4.08-5.13-8.89s4.26-6.65,6.26-5.44c0,0,2.09-4.27,7.69-2.69S387,280.62,387,280.62s12.45-1,14.09,10c0,0,0,.08,0,.13C401.2,292.31,402.48,308.89,394.07,312.38Z" style="fill: rgb(38, 50, 56); transform-origin: 381.445px 292.903px;" id="el0b8w7fqiwson" class="animable"></path><path d="M236.16,411.35s8.07-14.37,17.47-21.13,16.31-21.37,18.57-30.07c0,0,8.89,17.35,13.91,32.46s19.71,32.16,38.86,33.15c11.56.59,21.31-1.44,27.43-11.8,7.15-12.09,16.59-22.11,27.43-30.94,10.11-8.24,18.28-20.26,19-33.62.47-9.06-4.16-18.76-7.13-24h0a17.73,17.73,0,0,1-.56-10.54l1.26-4.91" style="fill: none; stroke: rgb(38, 50, 56); stroke-linecap: round; stroke-linejoin: round; transform-origin: 317.512px 367.901px;" id="elv0ytmj1grr" class="animable"></path><path d="M225.91,406.45s11.61-23.58,16.37-33.4,19.88-37.24,29.63-38.3,18.94,7.46,27.11,18.17,26.34,32.81,34,32.49" style="fill: none; stroke: rgb(38, 50, 56); stroke-linecap: round; stroke-linejoin: round; transform-origin: 279.465px 370.555px;" id="elj0o0v8kb3r" class="animable"></path><path d="M267.14,336.91s-10.22-.47-15.32,8-25.74,51.7-32.39,57.09" style="fill: none; stroke: rgb(38, 50, 56); stroke-linecap: round; stroke-linejoin: round; transform-origin: 243.285px 369.453px;" id="elykvj08j3lnn" class="animable"></path><path d="M406.49,278.87a19.67,19.67,0,0,1,15,.3,17,17,0,0,1,9.53,11.46c1.25,5.46-.48,11.26.63,16.76.71,3.46,2.5,6.58,3.8,9.86s2.11,7,.79,10.31a8.9,8.9,0,0,1-9.89,5.19,13.42,13.42,0,0,1-6.41-4c-5.61-5.71-8.78-14-7.6-21.88.61-4.06,2.29-7.86,3.51-11.77a17,17,0,0,0,1-6.79,7.3,7.3,0,0,0-3.42-5.7c-2.58-1.41-5.8-.57-8.44.72a27.11,27.11,0,0,0-7,5c-2.2-2.66-1.11-3.65,1.36-5.4A33.46,33.46,0,0,1,406.49,278.87Z" style="fill: rgb(38, 50, 56); transform-origin: 416.858px 305.224px;" id="elv6ub0yg3qnb" class="animable"></path><path d="M365,338.18c9.22-7.65,12.85-13,12.85-13,.78-3.17.74-6.7-.82-9.42a43.68,43.68,0,0,1-12.34-.63c-1-2-1.38-11.5-1.38-11.5s-2.77-2.27-2.79-3.07,1.85-1.54,3.81-3.48c2.28-2.26,1.69-3.28,2.47-7a12.08,12.08,0,0,1,4.19-6.25" style="fill: none; stroke: rgb(38, 50, 56); stroke-linecap: round; stroke-linejoin: round; transform-origin: 369.434px 311.005px;" id="el531araxvhzm" class="animable"></path><path d="M351,354.19a6.89,6.89,0,0,1,.27-3.8c1-4.13,6.37-6.46,9.44-8.79,1.55-1.18,3-2.33,4.3-3.42" style="fill: none; stroke: rgb(38, 50, 56); stroke-linecap: round; stroke-linejoin: round; transform-origin: 357.93px 346.185px;" id="elwurdhjf7bv" class="animable"></path><path d="M329.12,384.26a117.82,117.82,0,0,0,18-14.53" style="fill: none; stroke: rgb(38, 50, 56); stroke-linecap: round; stroke-linejoin: round; transform-origin: 338.12px 376.995px;" id="el51wkhc1dir6" class="animable"></path><path d="M277.12,370.38s18.38-1.06,17.18-22.63c0,0,4.64,5.45,10,11.88s13.58,17,23.63,23.94l6.85-3.3s6.39,19.61,23.93,24.28c0,0-5.76,7.64-9,13.16S335.26,426.37,329,426s-16.41-.1-30.63-13.34S286.06,384.74,277.12,370.38Z" style="fill: rgb(38, 50, 56); transform-origin: 317.915px 386.89px;" id="el4h30tsyum6q" class="animable"></path><path d="M226.21,404.87s-3.59,4.74-8.78,6.24-24.61,4-26,7.78,11.87,10.39,21.24,8.11,10.23-2.73,16.26-3.63c9.41-1.41,7.69-12.45,7.69-12.45S227.5,412.56,226.21,404.87Z" style="fill: rgb(38, 50, 56); transform-origin: 214.036px 416.169px;" id="el2qfjbf2ekb5" class="animable"></path><path d="M226.21,404.87s-4,1.51-6.21-3.86c0,0-7.15,5.47-13.44,5.73s-15-1.5-16.41.91,4,9.85,11.06,9.33,11.9,1.45,17.86-.71S226.21,404.87,226.21,404.87Z" style="fill: rgb(38, 50, 56); transform-origin: 208.068px 409.158px;" id="elzzfsyx6mc4" class="animable"></path><path d="M352.71,357.11a90.23,90.23,0,0,0,18.84-14.83" style="fill: none; stroke: rgb(38, 50, 56); stroke-linecap: round; stroke-linejoin: round; transform-origin: 362.13px 349.695px;" id="elyxk40x64ta" class="animable"></path><path d="M329.06,385.43a13.9,13.9,0,0,0,7.17,5" style="fill: none; stroke: rgb(255, 255, 255); stroke-linecap: round; stroke-linejoin: round; transform-origin: 332.645px 387.93px;" id="elz3in49hmknj" class="animable"></path><path d="M353.85,365.48c2.11-11.18-10.14-17.74-16.37-24.67-4.17-4.63-7-10.7-9.32-16.42l1.38-1.68a4.84,4.84,0,0,0,1.59-5.08c-1-3,1.94-5.54.45-8.87s-3.6-1.09-6.83.41-7.13,3.12-6.53,7.47a50.9,50.9,0,0,0,2.83,9.83s6.87,32,31.3,46.91c0,0,21.6-8.88,31.93-25.66" style="fill: none; stroke: rgb(38, 50, 56); stroke-linecap: round; stroke-linejoin: round; transform-origin: 351.219px 340.205px;" id="el4jnfu8d5t2l" class="animable"></path><path d="M319.74,312.11c.9-2.05,3-3.65,4.85-5.13,3-2.37,4.55-5.22,6.94-2.17s0,6.39,1.79,9.27-1.13,7.23-1.13,7.23,6.79,9.26,10.57,13.46c3.13,3.48,8.43,6.29,11.77,10.34" style="fill: none; stroke: rgb(38, 50, 56); stroke-linecap: round; stroke-linejoin: round; transform-origin: 337.135px 324.297px;" id="elb9wxufewy15" class="animable"></path><path d="M375.08,327.91a5.74,5.74,0,0,0-7.35,1c-2.58,2.66-9.24,12.52-12.72,16.57" style="fill: none; stroke: rgb(38, 50, 56); stroke-linecap: round; stroke-linejoin: round; transform-origin: 365.045px 336.245px;" id="elbv6vgr3m0gf" class="animable"></path><path d="M375.5,358.28c-1.82-8.39-10-10.24-10-10.24" style="fill: none; stroke: rgb(38, 50, 56); stroke-linecap: round; stroke-linejoin: round; transform-origin: 370.5px 353.16px;" id="elgp4krvmxlda" class="animable"></path><path d="M392,325.92c-8,11.73-16.31,2-16.31,2" style="fill: none; stroke: rgb(38, 50, 56); stroke-linecap: round; stroke-linejoin: round; transform-origin: 383.845px 328.814px;" id="elnxsgt703pb" class="animable"></path><g id="el53qkdanqp5"><path d="M411.87,282a10.61,10.61,0,0,1,8.24,4.32,15,15,0,0,1,2.38,6.87c.58,4.52.09,9.08-.07,13.62s0,9.22,1.86,13.41,5.61,7.81,10.23,8.41" style="fill: none; stroke: rgb(255, 255, 255); stroke-linecap: round; stroke-linejoin: round; opacity: 0.2; transform-origin: 423.19px 305.315px;" class="animable" id="el54n0v7icwtr"></path></g><g id="elufdmm2t0p"><path d="M370.24,274.26s8.4,24.52,30.73,25" style="fill: none; stroke: rgb(255, 255, 255); stroke-linecap: round; stroke-linejoin: round; opacity: 0.2; transform-origin: 385.605px 286.76px;" class="animable" id="el1fjmuzilj9i"></path></g><path d="M331.65,311.09s-4.75,3.32-4.32,7.41" style="fill: none; stroke: rgb(38, 50, 56); stroke-linecap: round; stroke-linejoin: round; transform-origin: 329.476px 314.795px;" id="el24dgmln9k76" class="animable"></path><path d="M328,315.2a16.15,16.15,0,0,1,1.3,2.21" style="fill: none; stroke: rgb(38, 50, 56); stroke-linecap: round; stroke-linejoin: round; transform-origin: 328.65px 316.305px;" id="elz2kyzljqbh" class="animable"></path></g><g id="freepik--character-1--inject-28" class="animable" style="transform-origin: 187.548px 315.22px;"><path d="M109.15,380.19s-3.14,6.45,2.32,8.66,11.35-2.48,11.35-2.48,17.34-6.58,25.71-8.17L145,387.37l8.26,3.43,3.83-1.6s3.11-8.95,9.44-11a30.31,30.31,0,0,0,16-1.4c8.92-3.15,13.69-9.69,15.15-13.88s-1.3-9.3-1.3-9.3,6.28-8.46,7.45-11.59,1.79-5.28,1.79-5.28a44.9,44.9,0,0,1,5.48,3.08c1.32,1.07,14,13.83,16.33,16.66s9.06,13.3,11.9,14.88,7.35,2.43,15,.14c0,0,6.33,8.1,8.62,7.78s-6.05-10.11-6.05-10.11,3.59.62,4.89,2.08,4.79,5.71,6.56,5.52S262.9,367,262.9,367s3.64,3.21,5.76,5.3a14,14,0,0,0,3.78,2.8A16.1,16.1,0,0,0,265.86,363l-21.28-.9-4.17-7.4,3.15-6.95-7.42-19s-3.5-23-21.5-30.25c0,0-2.13-18.73-9-24.73s-37.35,21.46-37.35,21.46,5.43,6.9,7.76,9.53,13.91,14,21.14,16.91l.47,2.88a73.73,73.73,0,0,0-35.84-.87c-19.34,4.49-11.12,6.37-11.12,6.37l-30.25,40.35S112,377.59,109.15,380.19Z" style="fill: rgb(255, 255, 255); transform-origin: 190.346px 331.856px;" id="elbkxxl28xomi" class="animable"></path><path d="M174.54,245.49s-2.6,6.39-8.37,8.38c0,0,5.73,12.73,12.32,15.23s12-.14,12.57-5.72c0,0,4.5,2.36,7.51-.6s6.12-12.37,6.12-12.37,2.75,1.12,3.57-.16-1-4.6-1.26-7.68-.95-14.83-3.25-16.67-21.11,11.35-21.11,11.35Z" style="fill: rgb(255, 255, 255); transform-origin: 187.32px 247.885px;" id="el3fe0aurzjc1" class="animable"></path><path d="M175.29,289.51s12.19,21.06,26.43,26.26a24.92,24.92,0,0,0,13.33,18.83c12.49,6.67,23.83,35.89,29.84,38.74,0,0-2.77,1-7.83-4.8s-14.6-20-23-25.91-14.14-11-16.82-20.91c0,0-18.06-8.78-29.35-27.51Z" style="fill: #92E3A9; transform-origin: 206.39px 331.458px;" id="elzctb1p1oooh" class="animable"></path><g id="eldvzaxqyayvp"><path d="M175.29,289.51s12.19,21.06,26.43,26.26a24.92,24.92,0,0,0,13.33,18.83c12.49,6.67,23.83,35.89,29.84,38.74,0,0-2.77,1-7.83-4.8s-14.6-20-23-25.91-14.14-11-16.82-20.91c0,0-18.06-8.78-29.35-27.51Z" style="fill: rgb(255, 255, 255); opacity: 0.6; transform-origin: 206.39px 331.458px;" class="animable" id="el4vngyrd1f8p"></path></g><path d="M109.41,388.65c6-5.95,12.79-11.39,20.58-14.74,6.62-2.84,13.91-3.13,21-3s14,0,21-.31c3.7-.18,7.46-.37,11-1.6a28.33,28.33,0,0,0,10.11-6.76c2-1.9,3.85-4.23,3.82-6.95,0,0,3.63,9.58-6.57,17.45s-19.84,5.83-23.81,5.43-18.66-.92-31.56,3.54a217.9,217.9,0,0,0-22.32,9.06Z" style="fill: #92E3A9; transform-origin: 153.479px 373.03px;" id="elja9dmsobm6" class="animable"></path><g id="elar89jzuoj1"><path d="M109.41,388.65c6-5.95,12.79-11.39,20.58-14.74,6.62-2.84,13.91-3.13,21-3s14,0,21-.31c3.7-.18,7.46-.37,11-1.6a28.33,28.33,0,0,0,10.11-6.76c2-1.9,3.85-4.23,3.82-6.95,0,0,3.63,9.58-6.57,17.45s-19.84,5.83-23.81,5.43-18.66-.92-31.56,3.54a217.9,217.9,0,0,0-22.32,9.06Z" style="fill: rgb(255, 255, 255); opacity: 0.6; transform-origin: 153.479px 373.03px;" class="animable" id="elib7nbmg1czl"></path></g><path d="M156.15,325.92l.36,9s22.56,3,29.09,8a66.13,66.13,0,0,1,10.46,10s4.7-4.71,6.25-7.85a79.35,79.35,0,0,0,3.33-9.08s-5.89-6.41-7.94-11.49c0,0-13.1-6-34.7-1.5Z" style="fill: #92E3A9; transform-origin: 180.895px 337.123px;" id="elri50pxfwt5" class="animable"></path><g id="elbojeaaub7ue"><path d="M156.15,325.92l.36,9s22.56,3,29.09,8a66.13,66.13,0,0,1,10.46,10s4.7-4.71,6.25-7.85a79.35,79.35,0,0,0,3.33-9.08s-5.89-6.41-7.94-11.49c0,0-13.1-6-34.7-1.5Z" style="fill: rgb(255, 255, 255); opacity: 0.6; transform-origin: 180.895px 337.123px;" class="animable" id="elx71ch9yn1yk"></path></g><path d="M149.21,378.2s10.5-1.11,14.85,0c0,0-7.61,8-7.91,13.55s-8.54,2.57-8.54,2.57l-4.16-7Z" style="fill: #92E3A9; transform-origin: 153.755px 386.413px;" id="elg3t2p4fcq7n" class="animable"></path><g id="elsc403ufmwvt"><path d="M149.21,378.2s10.5-1.11,14.85,0c0,0-7.61,8-7.91,13.55s-8.54,2.57-8.54,2.57l-4.16-7Z" style="fill: rgb(255, 255, 255); opacity: 0.6; transform-origin: 153.755px 386.413px;" class="animable" id="el786fdsqzezn"></path></g><path d="M207.37,276.82s7.47,13.73,7.27,21.73c0,0,11,5.27,16.24,15.34s10.08,30.62,13.48,35.59l-2.76,6.88s-9.17-16.47-11-20.27-7.89-24.72-25.67-29.84c0,0-3.35-16.13-9.1-20.58C195.81,285.67,198.31,276.75,207.37,276.82Z" style="fill: #92E3A9; transform-origin: 220.095px 316.59px;" id="eldu4mp5dam3" class="animable"></path><g id="eltlalgrunbob"><path d="M207.9,277.4s7.46,13.72,7.27,21.72c0,0,11,5.28,16.23,15.35s9.86,29.37,13.26,34.33l-3.16,7.87s-8.54-16.21-10.39-20-7.89-24.72-25.67-29.84c0,0-3.36-16.13-9.11-20.57C196.33,286.25,198.83,277.32,207.9,277.4Z" style="fill: rgb(255, 255, 255); opacity: 0.6; transform-origin: 220.495px 317.035px;" class="animable" id="el9385n309x9s"></path></g><path d="M197.4,238.94s-6.64,19.26-22.78,21c0,0-.56,3.8,3.53,9.08,0,0-7-4-11.71-14.6,0,0,8.54-6.41,8.52-10.14s11.06-11,11.06-11l12.29-5.84" style="fill: #92E3A9; transform-origin: 182.375px 248.23px;" id="elp9g8z1zwj3j" class="animable"></path><g id="el5a70gsn2e27"><path d="M197.4,238.94s-6.64,19.26-22.78,21c0,0-.56,3.8,3.53,9.08,0,0-7-4-11.71-14.6,0,0,8.54-6.41,8.52-10.14s11.06-11,11.06-11l12.29-5.84" style="fill: rgb(255, 255, 255); opacity: 0.6; transform-origin: 182.375px 248.23px;" class="animable" id="elh9fxdxob2um"></path></g><path d="M113.57,317.89s9.72-16.51,11.51-21.51,9.23-28.06,15.23-33.67,10-9.68,25.86-8.84c0,0,6,13.86,13.39,15.56,8.15,1.17,11.25-1.05,11.5-6.05a5.69,5.69,0,0,0,6.59.5s7.38,8.65,9.72,12.94c0,0-8.78,1.74-11.77,7.94l-2.26-1.82s-14-.31-23.72,13.23c0,0,8.09,10.77,10.88,13.48,0,0-16.39,15.14-24.35,16.27l-.23,9S135,348.64,113.57,317.89Z" style="fill: #92E3A9; transform-origin: 160.47px 295.865px;" id="el5n3mmkaa1o2" class="animable"></path><g id="eljj1nd8l0xz"><path d="M165,290.55s-10.89.75-15.81,2.59l6.18,1.79-4.28,2.74s9-2.77,11.85-1.15a38.48,38.48,0,0,0,10.46,12s-21,15.87-33.59,12.06a58.58,58.58,0,0,0,7.61,4.05l.85,10,7.88,1.52V325.92s17.23-7.56,24.35-16.27C180.5,309.65,169,297.41,165,290.55Z" style="opacity: 0.2; transform-origin: 160.155px 313.35px;" class="animable" id="elqjtonsujkq9"></path></g><path d="M201.48,242.4c-.22,1-.06,2,.37,2.07s1-.68,1.19-1.74.06-2-.37-2.07S201.71,241.35,201.48,242.4Z" style="fill: rgb(38, 50, 56); transform-origin: 202.253px 242.565px;" id="elklm22ogsiu" class="animable"></path><path d="M205.57,238.5s-2.25-2.93-5.17.19" style="fill: none; stroke: rgb(38, 50, 56); stroke-linecap: round; stroke-linejoin: round; transform-origin: 202.985px 237.971px;" id="elo9r5by97vk" class="animable"></path><path d="M204.55,227.65s2.34,6.21,2.16,8.68a31.57,31.57,0,0,0,1,9.67c.87,2.87,1.23,5.27-3,4.41a96.6,96.6,0,0,1-5.26,11.15c-2.11,3.46-4.77,4.57-10.4.5l-4.18,5" style="fill: none; stroke: rgb(38, 50, 56); stroke-linecap: round; stroke-linejoin: round; transform-origin: 196.566px 247.355px;" id="elysd063lmlj" class="animable"></path><path d="M192.72,243.09s4.61-2,4.75-5.59-1.57-7.16,5-7.36,10.32-.54,12.35-4.48-5.48-4.49-5.48-4.49,3.66-4.31,1.79-8.29-31.73-2.24-41.2,5.22,2.45,26.94,5.36,29.39,10.65-.57,10.65-.57-2.87-5.81-.2-8.33S192.38,237.74,192.72,243.09Z" style="fill: rgb(38, 50, 56); transform-origin: 190.753px 229.626px;" id="eluvvw6bgrok" class="animable"></path><path d="M195.53,250.25a7.2,7.2,0,0,0,4.87,5.57" style="fill: none; stroke: rgb(38, 50, 56); stroke-linecap: round; stroke-linejoin: round; transform-origin: 197.965px 253.035px;" id="elrveghfhqhn" class="animable"></path><path d="M194.16,283.56c.88-3.48,2.24-7.07,1.37-13.47" style="fill: none; stroke: rgb(38, 50, 56); stroke-linecap: round; stroke-linejoin: round; transform-origin: 194.985px 276.825px;" id="elqowi3r52cbe" class="animable"></path><path d="M156.15,334.6v-8.68s13.06-3.59,24.35-16.27" style="fill: none; stroke: rgb(38, 50, 56); stroke-linecap: round; stroke-linejoin: round; transform-origin: 168.325px 322.125px;" id="el0ycf3mpqusg" class="animable"></path><path d="M166.54,253.87c-5.13-.71-15.58-1.35-22.76,5.16-9.57,8.67-13.95,23.81-17.54,34.28-2.57,7.48-6.81,14.47-10.71,21.3-4.71,8.25-11.13,15.86-12.74,25.49-2.22,13.2,6,25.48,17.7,30.35" style="fill: none; stroke: rgb(38, 50, 56); stroke-linecap: round; stroke-linejoin: round; transform-origin: 134.484px 311.945px;" id="elselu9gwwtm" class="animable"></path><path d="M172.84,353.36C137,348.8,110.4,379.87,110.4,379.87l0,0c-.39.75-6.4,12.37,6.29,8.51,2.23-.68,4.24-1.38,6.15-2.05,9.37-3.28,23.43-11,42.12-8,8.45,1.33,15.13.5,24-4.64A20.75,20.75,0,0,0,196.4,366c6.36-11-6.47-22-16.82-26-11.65-4.56-24.82-5.67-37.24-5.38" style="fill: none; stroke: rgb(38, 50, 56); stroke-linecap: round; stroke-linejoin: round; transform-origin: 153.368px 361.87px;" id="elaq8nvqm892e" class="animable"></path><path d="M163.55,356.52a57.66,57.66,0,0,1,11,.73" style="fill: none; stroke: rgb(38, 50, 56); stroke-linecap: round; stroke-linejoin: round; transform-origin: 169.05px 356.872px;" id="elgmtdaoinuxj" class="animable"></path><path d="M152,359.72s1.87-1.81,7-2.72" style="fill: none; stroke: rgb(38, 50, 56); stroke-linecap: round; stroke-linejoin: round; transform-origin: 155.5px 358.36px;" id="elx92ackpwbu9" class="animable"></path><path d="M138.16,414.21c-.33,5.22-14.62,7.92-24.28,2.32s-3.49-13.32-6.77-17.57c-3.12-4-6.14-15.28,3.9-19.77-.4.75-5.45,10,5.66,9.23,2.32-.16,4.24-1.38,6.15-2.05.16,4.66.76,15.08,2.84,17.61C128.37,407.26,138.49,409,138.16,414.21Z" style="fill: rgb(38, 50, 56); transform-origin: 121.144px 399.414px;" id="elhr1y3nr1d24" class="animable"></path><path d="M196.4,353c5-4.53,8.93-13.09,9.24-16.93" style="fill: none; stroke: rgb(38, 50, 56); stroke-linecap: round; stroke-linejoin: round; transform-origin: 201.02px 344.535px;" id="el53ih6t1oq77" class="animable"></path><path d="M161.43,323.8c10.94-1.87,27.06-4.17,36.27.8" style="fill: none; stroke: rgb(38, 50, 56); stroke-linecap: round; stroke-linejoin: round; transform-origin: 179.565px 323.103px;" id="el5sjtxnff8gs" class="animable"></path><path d="M181.61,340.85s10.16-3.52,17-1.3" style="fill: none; stroke: rgb(38, 50, 56); stroke-linecap: round; stroke-linejoin: round; transform-origin: 190.11px 339.833px;" id="ele91jlzqq9lt" class="animable"></path><path d="M188.14,274.67a40.63,40.63,0,0,0,5.2,8c5.09,5.53,11.23,17.33,11.57,23.62a35.78,35.78,0,0,1,20.79,19.41c6.56,15.21,18.88,36.45,18.88,36.45s10.9.31,20.53.56c5.35,2,8.67,12.09,7.33,12.39s-3.73-2.89-6.15-5.34S262.9,367,262.9,367s6.87,9.66,5.48,9.82-3.91-2.5-6.56-5.52-4.89-2.08-4.89-2.08,9.17,10.31,6.05,10.11-8.62-7.78-8.62-7.78a42.33,42.33,0,0,1-9.47,1.83,8.17,8.17,0,0,1-6.2-2.61S221,346.37,208.92,338.21s-11.69-16.49-11.69-16.49c-15.88-6.55-27.65-25.7-31.55-30.42a14.5,14.5,0,0,0-1.79-1.8" style="fill: none; stroke: rgb(38, 50, 56); stroke-linecap: round; stroke-linejoin: round; transform-origin: 218.314px 327.001px;" id="elktw1pddoe3" class="animable"></path><path d="M245.48,350.29c-3.34-8-9.3-20.65-12.25-30.21a35.79,35.79,0,0,0-18.59-21.53c.34-6.3-4.5-18.69-9-24.73,0,0-4.5-6.69-8.25-9.94" style="fill: none; stroke: rgb(38, 50, 56); stroke-linecap: round; stroke-linejoin: round; transform-origin: 221.435px 307.085px;" id="el2ugzyrhfrig" class="animable"></path><path d="M166.54,253.87s6.81-2.05,8.75-11" style="fill: none; stroke: rgb(38, 50, 56); stroke-linecap: round; stroke-linejoin: round; transform-origin: 170.915px 248.37px;" id="ellc2440tfrb" class="animable"></path><path d="M153.27,354.22s2.14-16,15.06-18l-25.69-2.09s-15.64,4.34-29.07-16.22c0,0-12.26,16.74-11.14,28.12s9.06,20.89,18.06,24.44C120.49,370.45,138.12,355.45,153.27,354.22Z" style="fill: rgb(38, 50, 56); transform-origin: 135.344px 344.19px;" id="elz5z0sxa026d" class="animable"></path><path d="M158.19,291.74a54.82,54.82,0,0,0-12.3,2.3" style="fill: none; stroke: rgb(38, 50, 56); stroke-linecap: round; stroke-linejoin: round; transform-origin: 152.04px 292.89px;" id="el5yh1pfwtqb8" class="animable"></path><path d="M160,293.14l-4.46,2.14" style="fill: none; stroke: rgb(38, 50, 56); stroke-linecap: round; stroke-linejoin: round; transform-origin: 157.77px 294.21px;" id="el1imyf2pf144" class="animable"></path><path d="M169.47,296.38s8.86-13.2,23.87-13.75" style="fill: none; stroke: rgb(38, 50, 56); stroke-linecap: round; stroke-linejoin: round; transform-origin: 181.405px 289.505px;" id="el35p1fnmiah6" class="animable"></path><path d="M153.27,325s-7.14,1.39-16.83-7.14" style="fill: none; stroke: rgb(38, 50, 56); stroke-linecap: round; stroke-linejoin: round; transform-origin: 144.855px 321.472px;" id="el9r14s6ncws" class="animable"></path><path d="M145.5,383.8s-6.7,10.41-4.63,12.71c4,4.4,6.58,4.77,10.31,12.48,3.4,7,16.45,6.35,23.41,5.14,3.89-.67,7-1.33,4.66-6.2a10.34,10.34,0,0,0-6.24-5.26c-9.3-3-14.19-9.05-15.68-14.84C157.33,387.83,156.8,394.28,145.5,383.8Z" style="fill: rgb(38, 50, 56); transform-origin: 160.265px 399.346px;" id="elp82nbyn5ryr" class="animable"></path><g id="eljxnaaup4y0s"><path d="M177.59,245.49c-4.09-4.12-4.21-11.16-1.15-16.09s8.68-7.85,14.41-8.79c2.91-.48,5.91-.51,8.78-1.2a6.88,6.88,0,0,0,3-1.39,3,3,0,0,0,1-3,3.32,3.32,0,0,0-2.81-2,19.5,19.5,0,0,0-3.66.09" style="fill: none; stroke: rgb(255, 255, 255); stroke-linecap: round; stroke-linejoin: round; opacity: 0.2; transform-origin: 189.012px 229.232px;" class="animable" id="el4sqiveolxle"></path></g><path d="M191.33,313.89a32.61,32.61,0,0,0,7.29,4" style="fill: none; stroke: rgb(38, 50, 56); stroke-linecap: round; stroke-linejoin: round; transform-origin: 194.975px 315.89px;" id="el68afv62oa13" class="animable"></path><path d="M176.09,296.38a60.22,60.22,0,0,0,11.28,14.29" style="fill: none; stroke: rgb(38, 50, 56); stroke-linecap: round; stroke-linejoin: round; transform-origin: 181.73px 303.525px;" id="el5591w34wfp" class="animable"></path><path d="M195.81,284.76a14,14,0,0,1,11.83-7.94" style="fill: none; stroke: rgb(38, 50, 56); stroke-linecap: round; stroke-linejoin: round; transform-origin: 201.725px 280.79px;" id="el42rwreoj7tq" class="animable"></path><path d="M166.17,253.87s7.51,18,18.36,16.22c7.26-1.2,6.23-6.88,6.23-6.88" style="fill: none; stroke: rgb(38, 50, 56); stroke-linecap: round; stroke-linejoin: round; transform-origin: 178.49px 262.042px;" id="eld3dnwoyo1am" class="animable"></path><g id="el9ynuvfk208e"><path d="M124.87,404.28s-4.93-1.76-12.21,2.94" style="fill: none; stroke: rgb(255, 255, 255); stroke-linecap: round; stroke-linejoin: round; opacity: 0.2; transform-origin: 118.765px 405.589px;" class="animable" id="elhpgnrwdpypm"></path></g><path d="M156.15,390.8s2.85-9.06,8.79-12.47" style="fill: none; stroke: rgb(38, 50, 56); stroke-linecap: round; stroke-linejoin: round; transform-origin: 160.545px 384.565px;" id="elnyg176q38e" class="animable"></path><line x1="145.01" y1="385.27" x2="148.99" y2="378.2" style="fill: none; stroke: rgb(38, 50, 56); stroke-linecap: round; stroke-linejoin: round; transform-origin: 147px 381.735px;" id="el5mbu3wung53" class="animable"></line><g id="elprdqfbkcup"><path d="M156.15,401.87s3.56-2.92,9.85-2.52" style="fill: none; stroke: rgb(255, 255, 255); stroke-linecap: round; stroke-linejoin: round; opacity: 0.2; transform-origin: 161.075px 400.591px;" class="animable" id="ele19x0t96ap4"></path></g></g><defs>     <filter id="active" height="200%">         <feMorphology in="SourceAlpha" result="DILATED" operator="dilate" radius="2"></feMorphology>                <feFlood flood-color="#32DFEC" flood-opacity="1" result="PINK"></feFlood>        <feComposite in="PINK" in2="DILATED" operator="in" result="OUTLINE"></feComposite>        <feMerge>            <feMergeNode in="OUTLINE"></feMergeNode>            <feMergeNode in="SourceGraphic"></feMergeNode>        </feMerge>    </filter>    <filter id="hover" height="200%">        <feMorphology in="SourceAlpha" result="DILATED" operator="dilate" radius="2"></feMorphology>                <feFlood flood-color="#ff0000" flood-opacity="0.5" result="PINK"></feFlood>        <feComposite in="PINK" in2="DILATED" operator="in" result="OUTLINE"></feComposite>        <feMerge>            <feMergeNode in="OUTLINE"></feMergeNode>            <feMergeNode in="SourceGraphic"></feMergeNode>        </feMerge>            <feColorMatrix type="matrix" values="0   0   0   0   0                0   1   0   0   0                0   0   0   0   0                0   0   0   1   0 "></feColorMatrix>    </filter></defs></svg>